<svg id="Capa_1" enable-background="new 0 0 510 510" height="512" viewBox="0 0 510 510" width="512" xmlns="http://www.w3.org/2000/svg"><g><path d="m410.312 283.91c-69.038-39.747-157.27 9.913-157.27 91.09 0 75.88 78.208 126.349 146.99 96.27 79.025-34.517 84.924-144.538 10.28-187.36zm19.73 106.09h-20.73c-1.07 3.7-2.55 7.27-4.4 10.65l14.65 14.65-21.22 21.22-14.65-14.65c-3.534 1.93-7.255 3.437-10.65 4.4v20.73c-4.922 0-18.26 0-30 0v-20.73c-3.7-1.07-7.27-2.55-10.65-4.4l-14.65 14.65-21.22-21.22 14.66-14.66c-1.86-3.37-3.34-6.94-4.41-10.64h-20.73v-30h20.73c1.07-3.7 2.55-7.27 4.4-10.65l-14.65-14.65 21.22-21.22 14.65 14.65c3.38-1.85 6.94-3.33 10.65-4.4v-20.73h30v20.73c3.7 1.07 7.27 2.55 10.65 4.4l14.65-14.65 21.22 21.22-14.66 14.66c1.86 3.37 3.34 6.94 4.41 10.64h20.73z"/><circle cx="358.042" cy="375" r="23.4"/><path d="m234.762 430h-116.72v-30h107.32c-21.553-114.854 103.983-201.457 203.68-139.85v-196.15h-104c0 67.693.201 62-.36 62-41.273 0-137.404 0-173.64 0 0-7.264 0-54.664 0-62h-104v446h311c-54.788 0-102.146-32.81-123.28-80zm35.28-262h96v30h-96zm-133.39 12.39 21.39 21.4 37.39-37.4 21.22 21.22-58.61 58.6-42.61-42.6zm0 104 21.39 21.4 37.39-37.4 21.22 21.22-58.61 58.6-42.61-42.6z"/><path d="m294.73 96-.047-64h-12.09c-6.28-18.58-23.88-32-44.55-32s-38.27 13.42-44.55 32h-12.45v64z"/></g></svg>