<svg id="Layer_3" enable-background="new 0 0 64 64" height="512" viewBox="0 0 64 64" width="512" xmlns="http://www.w3.org/2000/svg"><g><path d="m19.103 51h-7.083c3.882 5.157 9.706 8.772 16.38 9.739l-.606-.417c-3.597-2.473-6.536-5.672-8.691-9.322z"/><path d="m28.927 58.674 2.073 1.425v-9.099h-9.539c1.939 2.979 4.452 5.602 7.466 7.674z"/><path d="m15.03 37h-8.01c.173 4.383 1.486 8.476 3.641 12h7.369c-1.815-3.698-2.857-7.778-3-12z"/><path d="m36.205 60.322-.606.417c6.674-.966 12.499-4.581 16.381-9.739h-7.085c-2.155 3.65-5.094 6.85-8.69 9.322z"/><path d="m20.27 49h10.73v-12h-13.97c.154 4.249 1.28 8.345 3.24 12z"/><path d="m33 49h10.729c1.96-3.655 3.085-7.75 3.24-12h-13.969z"/><path d="m45.968 49h7.371c2.155-3.524 3.468-7.617 3.641-12h-8.012c-.143 4.222-1.184 8.302-3 12z"/><path d="m42.537 51h-9.537v9.098l2.072-1.424c3.014-2.072 5.527-4.695 7.465-7.674z"/><path d="m35 13c0 .553-.447 1-1 1h-4c-.553 0-1-.447-1-1v-3h-2v10h10v-10h-2z"/><path d="m31 10h2v2h-2z"/><path d="m34.839 26.647c5.393-1.311 9.161-6.1 9.161-11.647 0-6.617-5.383-12-12-12s-12 5.383-12 12c0 5.547 3.768 10.336 9.161 11.647.267.064.495.237.632.476l2.207 3.861 2.207-3.861c.137-.238.365-.411.632-.476zm-8.839-4.647c-.553 0-1-.447-1-1v-12c0-.553.447-1 1-1h12c.553 0 1 .447 1 1v12c0 .553-.447 1-1 1z"/><path d="m9.584 26.793c.294.087.531.303.646.588l.77 1.927.771-1.927c.114-.285.352-.501.646-.588 2.109-.623 3.583-2.594 3.583-4.793 0-2.757-2.243-5-5-5s-5 2.243-5 5c0 2.199 1.474 4.17 3.584 4.793zm1.416-6.793c1.105 0 2 .895 2 2s-.895 2-2 2-2-.895-2-2 .895-2 2-2z"/><path d="m51.584 26.793c.294.087.531.303.646.588l.77 1.927.771-1.927c.114-.285.352-.501.646-.588 2.109-.623 3.583-2.594 3.583-4.793 0-2.757-2.243-5-5-5s-5 2.243-5 5c0 2.199 1.474 4.17 3.584 4.793zm1.416-6.793c1.105 0 2 .895 2 2s-.895 2-2 2-2-.895-2-2 .895-2 2-2z"/></g></svg>