<?xml version="1.0" encoding="utf-8"?>
<!-- Generator: Adobe Illustrator 23.0.2, SVG Export Plug-In . SVG Version: 6.00 Build 0)  -->
<svg version="1.1" id="Layer_1" xmlns="http://www.w3.org/2000/svg" xmlns:xlink="http://www.w3.org/1999/xlink" x="0px" y="0px"
	 viewBox="0 0 500 500" style="enable-background:new 0 0 500 500;" xml:space="preserve">
<style type="text/css">
	.st0{fill:#EEF0FB;}
	.st1{fill:url(#SVGID_1_);}
	.st2{fill:url(#SVGID_2_);}
	.st3{enable-background:new    ;}
	.st4{fill:url(#SVGID_3_);}
	.st5{fill:url(#SVGID_4_);}
	.st6{fill:url(#SVGID_5_);}
	.st7{fill:url(#SVGID_6_);}
	.st8{fill:url(#SVGID_7_);}
	.st9{fill:url(#SVGID_8_);}
	.st10{fill:url(#SVGID_9_);}
	.st11{fill:url(#SVGID_10_);}
	.st12{fill:url(#SVGID_11_);}
	.st13{fill:url(#SVGID_12_);}
	.st14{fill:url(#SVGID_13_);}
	.st15{fill:url(#SVGID_14_);}
	.st16{fill:url(#SVGID_15_);}
	.st17{fill:url(#SVGID_16_);}
	.st18{fill:url(#SVGID_17_);}
	.st19{fill:url(#SVGID_18_);}
	.st20{fill:url(#SVGID_19_);}
	.st21{fill:#FFFFFF;}
	.st22{fill:url(#SVGID_20_);}
</style>
<g>
	<polygon class="st0" points="470,-313.49 251.88,-186.73 32.32,-313.48 250.45,-440.24 	"/>
</g>
<g>
	<linearGradient id="SVGID_1_" gradientUnits="userSpaceOnUse" x1="251.5479" y1="-193.4702" x2="469.9969" y2="-193.4702">
		<stop  offset="4.719383e-03" style="stop-color:#D5DDFF"/>
		<stop  offset="1" style="stop-color:#9FB7FF"/>
	</linearGradient>
	<polygon class="st1" points="470,-313.49 469.88,-272.02 469.87,-266.17 469.68,-200.22 251.55,-73.45 251.74,-139.78 
		251.76,-145.61 251.88,-186.72 	"/>
</g>
<g>
	<linearGradient id="SVGID_2_" gradientUnits="userSpaceOnUse" x1="32" y1="-193.4702" x2="251.8764" y2="-193.4702">
		<stop  offset="4.719383e-03" style="stop-color:#D5DDFF"/>
		<stop  offset="1" style="stop-color:#9FB7FF"/>
	</linearGradient>
	<polygon class="st2" points="251.88,-186.72 251.76,-145.61 251.74,-139.78 251.55,-73.45 32,-200.22 32.19,-266.53 32.21,-272.36 
		32.33,-313.49 	"/>
</g>
<g>
	<g>
		<path class="st0" d="M252.05-145.43l-0.29-0.18L32.21-272.36l-0.03,5.82l219.55,126.75l0.33,0.19l217.8-126.57l0.01-5.85
			L252.05-145.43z"/>
	</g>
</g>
<g>
	<g>
		<g class="st3">
			<g>
				<linearGradient id="SVGID_3_" gradientUnits="userSpaceOnUse" x1="56.2119" y1="-310.7054" x2="56.2119" y2="-350.6418">
					<stop  offset="0" style="stop-color:#DFE4FF"/>
					<stop  offset="1" style="stop-color:#B0BCFF"/>
				</linearGradient>
				<polygon class="st4" points="63.93,-350.64 64.02,-319.67 48.49,-310.71 48.41,-341.68 				"/>
			</g>
			<g>
				<linearGradient id="SVGID_4_" gradientUnits="userSpaceOnUse" x1="46.4216" y1="-310.7054" x2="46.4216" y2="-344.0385">
					<stop  offset="0" style="stop-color:#D1D8FB"/>
					<stop  offset="1" style="stop-color:#99ABEC"/>
				</linearGradient>
				<polygon class="st5" points="48.49,-310.71 44.44,-313.06 44.35,-344.04 48.41,-341.68 				"/>
			</g>
			<g>
				<polygon class="st0" points="48.41,-341.68 44.35,-344.04 59.87,-353 63.93,-350.64 				"/>
			</g>
		</g>
	</g>
	<g>
		<g class="st3">
			<g>
				<polygon class="st0" points="44.3,-347.48 63.77,-336.16 79.29,-345.13 59.82,-356.44 				"/>
			</g>
			<g>
				<linearGradient id="SVGID_5_" gradientUnits="userSpaceOnUse" x1="44.2959" y1="-339.477" x2="63.7849" y2="-339.477">
					<stop  offset="0" style="stop-color:#D1D8FB"/>
					<stop  offset="1" style="stop-color:#99ABEC"/>
				</linearGradient>
				<polygon class="st6" points="44.3,-347.48 44.31,-342.79 63.78,-331.47 63.77,-336.16 				"/>
			</g>
			<g>
				<linearGradient id="SVGID_6_" gradientUnits="userSpaceOnUse" x1="63.7715" y1="-338.2989" x2="79.307" y2="-338.2989">
					<stop  offset="0" style="stop-color:#DFE4FF"/>
					<stop  offset="1" style="stop-color:#B0BCFF"/>
				</linearGradient>
				<polygon class="st7" points="63.77,-336.16 63.78,-331.47 79.31,-340.43 79.29,-345.13 				"/>
			</g>
		</g>
	</g>
</g>
<g>
	<g>
		<g class="st3">
			<g>
				<linearGradient id="SVGID_7_" gradientUnits="userSpaceOnUse" x1="260.9801" y1="-193.97" x2="260.9801" y2="-233.9064">
					<stop  offset="0" style="stop-color:#DFE4FF"/>
					<stop  offset="1" style="stop-color:#B0BCFF"/>
				</linearGradient>
				<polygon class="st8" points="268.7,-233.91 268.79,-202.93 253.26,-193.97 253.18,-224.94 				"/>
			</g>
			<g>
				<linearGradient id="SVGID_8_" gradientUnits="userSpaceOnUse" x1="251.1898" y1="-193.97" x2="251.1898" y2="-227.3032">
					<stop  offset="0" style="stop-color:#D1D8FB"/>
					<stop  offset="1" style="stop-color:#99ABEC"/>
				</linearGradient>
				<polygon class="st9" points="253.26,-193.97 249.2,-196.33 249.12,-227.3 253.18,-224.94 				"/>
			</g>
			<g>
				<polygon class="st0" points="253.18,-224.94 249.12,-227.3 264.64,-236.26 268.7,-233.91 				"/>
			</g>
		</g>
	</g>
	<g>
		<g class="st3">
			<g>
				<polygon class="st0" points="233.72,-239.67 253.2,-228.36 268.72,-237.32 249.24,-248.64 				"/>
			</g>
			<g>
				<linearGradient id="SVGID_9_" gradientUnits="userSpaceOnUse" x1="233.7201" y1="-231.6673" x2="253.2091" y2="-231.6673">
					<stop  offset="0" style="stop-color:#D1D8FB"/>
					<stop  offset="1" style="stop-color:#99ABEC"/>
				</linearGradient>
				<polygon class="st10" points="233.72,-239.67 233.73,-234.98 253.21,-223.66 253.2,-228.36 				"/>
			</g>
			<g>
				<linearGradient id="SVGID_10_" gradientUnits="userSpaceOnUse" x1="253.1958" y1="-230.4891" x2="268.7313" y2="-230.4891">
					<stop  offset="0" style="stop-color:#DFE4FF"/>
					<stop  offset="1" style="stop-color:#B0BCFF"/>
				</linearGradient>
				<polygon class="st11" points="253.2,-228.36 253.21,-223.66 268.73,-232.62 268.72,-237.32 				"/>
			</g>
		</g>
	</g>
</g>
<g>
	<g>
		<g class="st3">
			<g>
				<linearGradient id="SVGID_11_" gradientUnits="userSpaceOnUse" x1="245.6951" y1="-420.6057" x2="245.6951" y2="-460.5421">
					<stop  offset="0" style="stop-color:#DFE4FF"/>
					<stop  offset="1" style="stop-color:#B0BCFF"/>
				</linearGradient>
				<polygon class="st12" points="253.41,-460.54 253.5,-429.57 237.98,-420.61 237.89,-451.58 				"/>
			</g>
			<g>
				<linearGradient id="SVGID_12_" gradientUnits="userSpaceOnUse" x1="235.9048" y1="-420.6057" x2="235.9048" y2="-453.9388">
					<stop  offset="0" style="stop-color:#D1D8FB"/>
					<stop  offset="1" style="stop-color:#99ABEC"/>
				</linearGradient>
				<polygon class="st13" points="237.98,-420.61 233.92,-422.96 233.83,-453.94 237.89,-451.58 				"/>
			</g>
			<g>
				<polygon class="st0" points="237.89,-451.58 233.83,-453.94 249.35,-462.9 253.41,-460.54 				"/>
			</g>
		</g>
	</g>
	<g>
		<g class="st3">
			<g>
				<polygon class="st0" points="233.78,-457.38 253.25,-446.07 268.78,-455.03 249.3,-466.35 				"/>
			</g>
			<g>
				<linearGradient id="SVGID_13_" gradientUnits="userSpaceOnUse" x1="233.7791" y1="-449.3773" x2="253.2681" y2="-449.3773">
					<stop  offset="0" style="stop-color:#D1D8FB"/>
					<stop  offset="1" style="stop-color:#99ABEC"/>
				</linearGradient>
				<polygon class="st14" points="233.78,-457.38 233.79,-452.69 253.27,-441.37 253.25,-446.07 				"/>
			</g>
			<g>
				<linearGradient id="SVGID_14_" gradientUnits="userSpaceOnUse" x1="253.2548" y1="-448.1992" x2="268.7903" y2="-448.1992">
					<stop  offset="0" style="stop-color:#DFE4FF"/>
					<stop  offset="1" style="stop-color:#B0BCFF"/>
				</linearGradient>
				<polygon class="st15" points="253.25,-446.07 253.27,-441.37 268.79,-450.33 268.78,-455.03 				"/>
			</g>
		</g>
	</g>
</g>
<g>
	<g>
		<g class="st3">
			<g>
				<linearGradient id="SVGID_15_" gradientUnits="userSpaceOnUse" x1="450.4634" y1="-303.8703" x2="450.4634" y2="-343.8067">
					<stop  offset="0" style="stop-color:#DFE4FF"/>
					<stop  offset="1" style="stop-color:#B0BCFF"/>
				</linearGradient>
				<polygon class="st16" points="458.18,-343.81 458.27,-312.83 442.75,-303.87 442.66,-334.84 				"/>
			</g>
			<g>
				<linearGradient id="SVGID_16_" gradientUnits="userSpaceOnUse" x1="440.6731" y1="-303.8703" x2="440.6731" y2="-337.2035">
					<stop  offset="0" style="stop-color:#D1D8FB"/>
					<stop  offset="1" style="stop-color:#99ABEC"/>
				</linearGradient>
				<polygon class="st17" points="442.75,-303.87 438.69,-306.23 438.6,-337.2 442.66,-334.84 				"/>
			</g>
			<g>
				<polygon class="st0" points="442.66,-334.84 438.6,-337.2 454.12,-346.17 458.18,-343.81 				"/>
			</g>
		</g>
	</g>
	<g>
		<g class="st3">
			<g>
				<polygon class="st0" points="423.2,-349.57 442.68,-338.26 458.2,-347.22 438.73,-358.54 				"/>
			</g>
			<g>
				<linearGradient id="SVGID_17_" gradientUnits="userSpaceOnUse" x1="423.2034" y1="-341.5676" x2="442.6924" y2="-341.5676">
					<stop  offset="0" style="stop-color:#D1D8FB"/>
					<stop  offset="1" style="stop-color:#99ABEC"/>
				</linearGradient>
				<polygon class="st18" points="423.2,-349.57 423.22,-344.88 442.69,-333.56 442.68,-338.26 				"/>
			</g>
			<g>
				<linearGradient id="SVGID_18_" gradientUnits="userSpaceOnUse" x1="442.679" y1="-340.3894" x2="458.2146" y2="-340.3894">
					<stop  offset="0" style="stop-color:#DFE4FF"/>
					<stop  offset="1" style="stop-color:#B0BCFF"/>
				</linearGradient>
				<polygon class="st19" points="442.68,-338.26 442.69,-333.56 458.21,-342.52 458.2,-347.22 				"/>
			</g>
		</g>
	</g>
</g>
<g>
	<g class="st3">
		<linearGradient id="SVGID_19_" gradientUnits="userSpaceOnUse" x1="155.5887" y1="-299.7349" x2="348.9496" y2="-299.7349">
			<stop  offset="4.719383e-03" style="stop-color:#D5DDFF"/>
			<stop  offset="1" style="stop-color:#9FB7FF"/>
		</linearGradient>
		<path class="st20" d="M348.88-341.05c-0.03,0.49-0.06,0.97-0.1,1.46c-0.04,0.42-0.1,0.85-0.16,1.27
			c-0.07,0.48-0.14,0.97-0.23,1.45c-0.08,0.43-0.17,0.85-0.27,1.28c-0.11,0.47-0.22,0.94-0.34,1.41c-0.11,0.43-0.24,0.85-0.37,1.28
			c-0.14,0.47-0.3,0.93-0.46,1.4c-0.15,0.42-0.31,0.83-0.47,1.25c-0.19,0.49-0.4,0.98-0.62,1.46c-0.18,0.41-0.37,0.82-0.57,1.22
			c-0.24,0.48-0.49,0.97-0.75,1.45c-0.28,0.52-0.55,1.03-0.86,1.54c-0.07,0.12-0.14,0.24-0.21,0.35c-0.45,0.74-0.93,1.47-1.43,2.2
			c-0.09,0.14-0.19,0.27-0.29,0.41c-0.51,0.73-1.05,1.45-1.62,2.16c-0.11,0.13-0.22,0.27-0.33,0.4c-0.5,0.62-1.03,1.23-1.57,1.85
			c-0.15,0.17-0.3,0.34-0.45,0.5c-0.65,0.71-1.32,1.41-2.02,2.1c-0.13,0.13-0.26,0.25-0.39,0.37c-0.53,0.52-1.09,1.03-1.66,1.54
			c-0.45,0.41-0.92,0.81-1.39,1.21c-0.44,0.37-0.88,0.74-1.33,1.11c-0.49,0.4-1,0.79-1.51,1.18c-0.47,0.36-0.95,0.72-1.44,1.08
			c-0.53,0.39-1.08,0.77-1.63,1.15c-0.51,0.35-1.02,0.7-1.54,1.04c-0.57,0.37-1.16,0.74-1.75,1.11c-0.74,0.46-1.47,0.92-2.24,1.37
			c-1.44,0.84-2.93,1.64-4.45,2.41c-0.43,0.22-0.88,0.44-1.32,0.66c-1.18,0.58-2.37,1.14-3.58,1.69c-0.41,0.18-0.81,0.37-1.23,0.55
			c-1.58,0.69-3.18,1.34-4.82,1.96c-0.29,0.11-0.58,0.21-0.87,0.32c-1.38,0.51-2.78,1-4.19,1.47c-0.58,0.19-1.16,0.38-1.75,0.57
			c-0.78,0.25-1.56,0.48-2.35,0.72c-0.67,0.2-1.33,0.39-2,0.57c-0.8,0.22-1.6,0.43-2.4,0.64c-0.68,0.17-1.35,0.35-2.04,0.51
			c-0.82,0.2-1.64,0.38-2.46,0.57c-0.68,0.15-1.36,0.3-2.04,0.45c-0.84,0.18-1.69,0.34-2.53,0.5c-0.65,0.12-1.29,0.25-1.94,0.36
			c-1.81,0.32-3.63,0.62-5.47,0.87c-0.26,0.04-0.52,0.06-0.77,0.1c-1.6,0.22-3.21,0.41-4.82,0.57c-0.61,0.06-1.23,0.12-1.85,0.18
			c-1.03,0.1-2.07,0.18-3.11,0.26c-0.65,0.05-1.31,0.1-1.96,0.14c-1.08,0.07-2.16,0.12-3.25,0.16c-0.61,0.03-1.22,0.06-1.83,0.08
			c-0.94,0.03-1.88,0.04-2.82,0.05c-0.66,0.01-1.32,0.03-1.98,0.03c-1.01,0-2.01-0.01-3.02-0.03c-0.59-0.01-1.19-0.01-1.78-0.02
			c-0.92-0.02-1.84-0.07-2.76-0.11c-0.65-0.03-1.29-0.05-1.94-0.08c-0.99-0.05-1.98-0.13-2.97-0.2c-0.57-0.04-1.14-0.07-1.71-0.12
			c-1.2-0.1-2.39-0.22-3.59-0.35c-0.35-0.04-0.71-0.06-1.07-0.1c-1.55-0.17-3.09-0.37-4.62-0.58c-0.24-0.03-0.48-0.08-0.73-0.11
			c-1.32-0.19-2.64-0.4-3.94-0.62c-0.55-0.09-1.09-0.2-1.63-0.3c-1-0.18-2-0.37-2.98-0.57c-0.52-0.11-1.03-0.23-1.55-0.34
			c-1.09-0.24-2.17-0.48-3.25-0.73c-0.6-0.14-1.19-0.3-1.79-0.45c-0.98-0.25-1.96-0.51-2.93-0.78c-0.55-0.15-1.1-0.31-1.65-0.47
			c-1.54-0.45-3.06-0.92-4.57-1.42c-0.27-0.09-0.54-0.17-0.8-0.26c-1.73-0.59-3.43-1.21-5.11-1.87c-0.68-0.27-1.36-0.54-2.03-0.82
			c-0.54-0.22-1.08-0.44-1.61-0.67c-0.76-0.33-1.5-0.67-2.25-1c-0.49-0.22-0.98-0.44-1.47-0.67c-0.81-0.39-1.61-0.79-2.41-1.19
			c-0.4-0.2-0.8-0.39-1.2-0.6c-1.18-0.62-2.34-1.25-3.48-1.91c-10.72-6.19-18.42-13.46-23.1-21.21c-3.64-6.03-5.45-12.34-5.43-18.64
			l-0.09,30.89c-0.04,14.42,9.47,28.86,28.53,39.86c1.14,0.66,2.3,1.29,3.48,1.91c0.39,0.21,0.8,0.4,1.2,0.6
			c0.79,0.4,1.59,0.81,2.4,1.19c0.48,0.23,0.98,0.45,1.47,0.67c0.74,0.34,1.49,0.68,2.25,1c0.53,0.23,1.07,0.45,1.61,0.67
			c0.51,0.21,1.02,0.43,1.54,0.64c0.16,0.06,0.33,0.12,0.49,0.18c1.68,0.65,3.38,1.28,5.11,1.87c0.26,0.09,0.53,0.17,0.79,0.26
			c1.51,0.5,3.04,0.97,4.58,1.42c0.26,0.07,0.5,0.16,0.76,0.24c0.29,0.08,0.59,0.15,0.89,0.24c0.97,0.27,1.95,0.53,2.94,0.78
			c0.6,0.15,1.19,0.31,1.79,0.45c1.08,0.26,2.17,0.5,3.26,0.74c0.41,0.09,0.8,0.19,1.21,0.27c0.11,0.02,0.22,0.04,0.33,0.06
			c0.99,0.2,1.99,0.39,2.99,0.57c0.54,0.1,1.08,0.21,1.62,0.3c1.29,0.22,2.6,0.42,3.9,0.62c0.24,0.04,0.49,0.08,0.73,0.12
			c0.01,0,0.03,0,0.04,0c1.53,0.22,3.07,0.41,4.62,0.58c0.35,0.04,0.71,0.07,1.07,0.1c1.19,0.13,2.39,0.25,3.59,0.35
			c0.03,0,0.06,0.01,0.09,0.01c0.53,0.04,1.07,0.07,1.61,0.11c1,0.07,1.99,0.15,2.99,0.2c0.64,0.04,1.29,0.05,1.93,0.08
			c0.92,0.04,1.84,0.08,2.77,0.11c0.08,0,0.15,0.01,0.23,0.01c0.52,0.01,1.04,0.01,1.56,0.02c1.01,0.02,2.01,0.03,3.02,0.03
			c0.66,0,1.31-0.02,1.97-0.03c0.94-0.01,1.89-0.03,2.83-0.05c0.17-0.01,0.35,0,0.52-0.01c0.44-0.01,0.87-0.05,1.31-0.07
			c1.08-0.05,2.17-0.1,3.25-0.16c0.66-0.04,1.31-0.09,1.96-0.14c1.04-0.08,2.07-0.16,3.11-0.26c0.36-0.03,0.73-0.05,1.09-0.09
			c0.25-0.03,0.5-0.06,0.75-0.09c1.61-0.17,3.21-0.36,4.81-0.57c0.26-0.04,0.52-0.06,0.79-0.1c1.83-0.26,3.65-0.55,5.46-0.87
			c0.17-0.03,0.34-0.05,0.51-0.08c0.48-0.09,0.96-0.19,1.44-0.28c0.84-0.16,1.69-0.32,2.52-0.5c0.69-0.14,1.37-0.3,2.05-0.45
			c0.82-0.18,1.64-0.37,2.46-0.57c0.68-0.16,1.36-0.34,2.03-0.51c0.81-0.21,1.61-0.42,2.41-0.64c0.67-0.19,1.34-0.38,2-0.57
			c0.79-0.23,1.57-0.47,2.35-0.72c0.34-0.11,0.69-0.2,1.03-0.31c0.25-0.08,0.48-0.17,0.72-0.25c1.41-0.47,2.81-0.96,4.18-1.47
			c0.29-0.11,0.59-0.21,0.88-0.32c1.63-0.62,3.24-1.28,4.82-1.96c0.41-0.18,0.82-0.37,1.23-0.55c1.21-0.54,2.4-1.1,3.58-1.69
			c0.44-0.22,0.88-0.43,1.32-0.66c1.51-0.77,3-1.57,4.44-2.41c0.4-0.23,0.79-0.46,1.18-0.7c0.37-0.22,0.7-0.45,1.06-0.67
			c0.59-0.37,1.18-0.74,1.75-1.11c0.53-0.34,1.04-0.69,1.54-1.04c0.55-0.38,1.1-0.76,1.63-1.15c0.49-0.36,0.97-0.72,1.44-1.08
			c0.51-0.39,1.02-0.78,1.51-1.18c0.46-0.37,0.9-0.74,1.33-1.11c0.47-0.4,0.94-0.81,1.39-1.21c0.19-0.17,0.39-0.33,0.57-0.5
			c0.37-0.34,0.73-0.69,1.08-1.04c0.13-0.12,0.26-0.25,0.39-0.37c0.7-0.69,1.37-1.39,2.02-2.1c0.15-0.17,0.3-0.33,0.45-0.5
			c0.54-0.61,1.07-1.23,1.57-1.85c0.11-0.13,0.22-0.27,0.33-0.4c0.05-0.06,0.1-0.12,0.15-0.19c0.51-0.65,1-1.31,1.47-1.97
			c0.1-0.14,0.19-0.27,0.29-0.41c0.5-0.73,0.98-1.46,1.43-2.2c0.07-0.12,0.14-0.24,0.21-0.35c0.17-0.28,0.34-0.56,0.49-0.84
			c0.13-0.23,0.24-0.47,0.36-0.7c0.26-0.48,0.51-0.96,0.75-1.45c0.2-0.41,0.39-0.81,0.57-1.22c0.22-0.49,0.42-0.97,0.62-1.46
			c0.09-0.22,0.19-0.44,0.28-0.66c0.07-0.2,0.13-0.4,0.2-0.59c0.17-0.46,0.32-0.93,0.46-1.4c0.13-0.43,0.26-0.85,0.37-1.28
			c0.13-0.47,0.24-0.94,0.34-1.41c0.06-0.25,0.13-0.51,0.19-0.76c0.03-0.17,0.05-0.34,0.08-0.52c0.09-0.48,0.16-0.96,0.23-1.45
			c0.06-0.42,0.12-0.85,0.16-1.27c0.05-0.48,0.08-0.97,0.1-1.45c0.02-0.29,0.05-0.57,0.06-0.86c0.01-0.28,0.01-0.57,0.01-0.85
			l0.09-30.89C348.95-342.18,348.91-341.62,348.88-341.05z"/>
		<g>
			
				<ellipse transform="matrix(2.834969e-03 -1 1 2.834969e-03 594.6237 -89.7428)" class="st21" cx="252.31" cy="-343.03" rx="55.97" ry="96.64"/>
		</g>
		<g>
			<linearGradient id="SVGID_20_" gradientUnits="userSpaceOnUse" x1="252.313" y1="-298.4228" x2="252.313" y2="-388.8527">
				<stop  offset="4.719624e-03" style="stop-color:#4557DB"/>
				<stop  offset="1" style="stop-color:#9FB7FF"/>
			</linearGradient>
			<path class="st22" d="M307.33-375.61c30.58,17.66,30.75,46.28,0.36,63.94c-30.38,17.66-79.81,17.66-110.39,0
				c-30.59-17.66-30.74-46.29-0.36-63.94C227.33-393.27,276.74-393.27,307.33-375.61z"/>
		</g>
	</g>
</g>
</svg>
