<svg id="Capa_1" enable-background="new 0 0 512 512" height="512" viewBox="0 0 512 512" width="512" xmlns="http://www.w3.org/2000/svg" xmlns:xlink="http://www.w3.org/1999/xlink"><linearGradient id="SVGID_1_" gradientUnits="userSpaceOnUse" x1="274.45" x2="274.45" y1="481" y2="31"><stop offset="0" stop-color="#5558ff"/><stop offset="1" stop-color="#00c0ff"/></linearGradient><linearGradient id="SVGID_2_" gradientUnits="userSpaceOnUse" x1="233.5" x2="233.5" y1="480.998" y2="121"><stop offset="0" stop-color="#addcff"/><stop offset=".5028" stop-color="#eaf6ff"/><stop offset="1" stop-color="#eaf6ff"/></linearGradient><g><path d="m497 31h-362c-8.401 0-15 6.599-15 15v375c0 16.5-13.499 30-30 30-8.401 0-15 6.599-15 15 0 4.2-19.2 7.8-38.101 10.199 7.2 3.301 15 4.801 23.101 4.801h377c41.4 0 75-33.6 75-75v-360c0-8.401-6.599-15-15-15z" fill="url(#SVGID_1_)"/><g><g><path d="m15 331c-8.284 0-15 6.716-15 15v75c0 24.6 15.3 46.199 36.599 55.199.3.3.3 0 .3 0 6.767 3.103 14.065 4.614 21.645 4.785 33.789.759 61.456-29.344 61.456-63.142v-86.842zm166-60h120c8.291 0 15-6.709 15-15v-120c0-8.291-6.709-15-15-15h-120c-8.291 0-15 6.709-15 15v120c0 8.291 6.709 15 15 15zm181-120h90c8.291 0 15-6.709 15-15s-6.709-15-15-15h-90c-8.291 0-15 6.709-15 15s6.709 15 15 15zm90 30h-90c-8.291 0-15 6.709-15 15s6.709 15 15 15h90c8.291 0 15-6.709 15-15s-6.709-15-15-15zm0 60h-90c-8.291 0-15 6.709-15 15s6.709 15 15 15h90c8.291 0 15-6.709 15-15s-6.709-15-15-15zm0 60h-271c-8.291 0-15 6.709-15 15s6.709 15 15 15h271c8.291 0 15-6.709 15-15s-6.709-15-15-15zm0 60h-271c-8.291 0-15 6.709-15 15s6.709 15 15 15h271c8.291 0 15-6.709 15-15s-6.709-15-15-15z" fill="url(#SVGID_2_)"/></g></g></g></svg>