<?xml version="1.0" encoding="utf-8"?>
<!-- Generator: Adobe Illustrator 25.4.1, SVG Export Plug-In . SVG Version: 6.00 Build 0)  -->
<svg version="1.1" id="Layer_1" xmlns="http://www.w3.org/2000/svg" xmlns:xlink="http://www.w3.org/1999/xlink" x="0px" y="0px"
	 viewBox="-6.006 -80.12 38.904 24.444" enable-background="new -6.006 -80.12 38.904 24.444" xml:space="preserve">
<g>
	<g>
		<path fill-rule="evenodd" clip-rule="evenodd" fill="#FFFFFF" d="M12.754-80.12L12.754-80.12l0.371,0.021L12.754-80.12z
			 M1.023-72.278c4.052-2.12,10.202-3.92,14.219-4.406l0.077-0.027l-0.081,0.818c-0.078,1.073-0.142,1.009,0.412,0.262l0.05-0.037
			l0.037-0.076l0,0l0.051-0.039l0.025-0.052l0,0l0.024-0.051l0.05-0.04l0,0l0.025-0.051l0.051-0.038l0,0l0.025-0.052l0.025-0.051
			l0.025,0.012l0.025-0.051l0.025-0.052l0,0l0.051-0.039l0.024-0.05l0,0l0.051-0.04l0.025-0.052l0,0l0.024-0.051l0.039-0.014
			l0.012-0.025l0.026-0.053l0.037-0.012l0.013-0.027l0.024-0.05l0.013-0.026l0,0l0.05-0.038l0.026-0.053l0,0l0.05-0.039l0.013-0.024
			l0.012-0.025l0.025-0.052l0.038-0.013l0,0l0.025-0.052l0.013-0.026l0.038-0.013l0.026-0.051l0.012-0.025l0,0l0.051-0.04
			l0.012-0.023l0.014-0.028l0.024-0.05l0.063-0.065l0.012-0.025l0.013-0.025l0.037-0.014l0.014-0.025l0.012-0.025l0.039-0.015
			l0.012-0.023l0.013-0.025l0.024-0.053l0,0l0.039-0.013l0.025-0.052l0.012-0.024l0,0l0.051-0.039l0.012-0.026l0,0l0.025-0.052
			l0.012-0.025l0.026,0.013l0.025-0.052l0,0l0.013-0.025l0.051-0.039l0,0l0.012-0.025l0.025-0.051l0,0l0.039-0.014l0.012-0.025
			l0.013-0.026l0.013-0.025l0.012-0.024l0.026,0.011l0.012-0.026l0.025-0.049l0,0l0.013-0.027l0.038-0.013l0,0l0.012-0.026
			l0.164-0.205l0.012-0.025l0.013-0.025l0,0l0.013-0.026l0.037-0.014l0,0l0.014-0.025l0.012-0.025l0,0l0.013-0.025l0.013-0.026
			l0.025,0.013l0,0l0.012-0.025l0.013-0.025l0,0l0.013-0.026l0.012-0.025l0,0l0,0l0.039-0.013l0.013-0.024l0,0l0.013-0.027l0,0l0,0
			l0.012-0.025l0.013-0.025l0,0l0,0l0.038-0.015l0,0l0.012-0.024l0,0l0.013-0.025l0,0l0.013-0.026l0,0l0,0l0.012-0.025l0,0l0,0
			l0.038-0.013l0,0l0.012-0.026l0,0l0,0l0.013-0.025l0,0l0,0l0.013-0.026l0,0l0,0l0,0l0.012-0.024l0,0l0,0l0.012-0.026l0,0l0,0l0,0
			l0,0l0.038-0.013l0,0l0,0l0,0l0,0l0.013-0.026l0,0l0,0l0,0l0,0l0,0l0.012-0.026l0,0l0,0l0,0l0,0l0,0l0,0l0,0l0,0l0.012-0.024
			l-0.026-0.012c-0.037,0.012-1.566-0.955-5.129-2.119c-0.86-0.388-0.848-0.478-0.252,0.384l0.675,1.028L13.6-79.836l0,0l0,0
			l-0.038,0.015l0,0l0,0l-0.038,0.013l0,0l0,0l-0.025-0.012l-0.012,0.024l-0.026-0.012l0,0l0,0l0,0l-0.039,0.014l0,0l-0.025-0.013
			l-0.013,0.025l-0.026-0.014l0,0l0,0l-0.037,0.015l0,0l-0.04,0.013l0,0l-0.025-0.012l0,0l-0.012,0.025l-0.026-0.013l0,0
			l-0.039,0.014l0,0l0,0l0,0l-0.038,0.012l0,0l-0.025-0.012l-0.012,0.025l-0.026-0.013l0,0l0,0l-0.037,0.014l0,0l-0.039,0.013l0,0
			l0,0l-0.026-0.013l-0.012,0.026l-0.025-0.013l0,0l-0.039,0.013l0,0l0,0l-0.026-0.012l-0.077,0.026l0,0l0,0l-0.037,0.013l0,0
			l-0.039,0.013l0,0l-0.026-0.013l0,0l-0.038,0.014l0,0c-1.644,0.312-3.326,0.697-4.89,1.363c0.33-0.156,0.635-0.324,0.94-0.493
			c0.073-0.346,0.133-0.666,0.207-0.948c0.205-1.201,0.284-2.274,0.248-3.117l2.84,2.844c0.075-0.026,0.138-0.025,0.203-0.026
			l-1.342-1.417l-1.716-1.629l13.55,2.441l-2.161,0.916l-1.97,0.977l-0.226,0.271l4.283-1.944c-0.337,0.756-0.645,1.78-0.862,3.009
			c-0.218,1.228-0.524,3.682-0.464,4.536l-2.86-3.584c-0.953-0.718-1.16-0.945-0.176,0.297l2.769,3.443
			c-1.257-0.548-3.602-1.214-6.352-1.698l-0.09-0.011l-0.102-0.051c-4.823-0.857-8.991,0.002-13.425,2.257L1.023-72.278z"/>
	</g>
</g>
<g>
	<g>
		<path fill-rule="evenodd" clip-rule="evenodd" fill="#FFFFFF" d="M37.871-34.745L37.871-34.745l0.371,0.021L37.871-34.745z
			 M26.139-26.903c4.052-2.12,10.202-3.92,14.219-4.406l0.077-0.027l-0.082,0.818c-0.078,1.073-0.142,1.009,0.412,0.262l0.051-0.037
			l0.037-0.076l0,0l0.051-0.039l0.025-0.052l0,0l0.024-0.051l0.05-0.04l0,0l0.025-0.051l0.052-0.038l0,0l0.024-0.052l0.025-0.051
			l0.025,0.012l0.025-0.051l0.025-0.052l0,0l0.051-0.039l0.023-0.05l0,0l0.051-0.04l0.025-0.052l0,0l0.025-0.051l0.039-0.014
			l0.012-0.025l0.025-0.053l0.037-0.012l0.014-0.027l0.024-0.05l0.013-0.026l0,0l0.051-0.038l0.025-0.053l0,0l0.05-0.039
			l0.013-0.024l0.012-0.025l0.025-0.052l0.038-0.013l0,0l0.024-0.052l0.014-0.026l0.038-0.013l0.026-0.051l0.012-0.025l0,0
			l0.051-0.04l0.012-0.023l0.014-0.028l0.023-0.05l0.063-0.065l0.013-0.025l0.013-0.025l0.037-0.014l0.014-0.025l0.013-0.025
			l0.039-0.015l0.012-0.023l0.013-0.025l0.024-0.053l0,0l0.039-0.013l0.024-0.052l0.013-0.024l0,0l0.051-0.039l0.012-0.026l0,0
			l0.025-0.052l0.012-0.025l0.025,0.013l0.025-0.052l0,0l0.013-0.025l0.052-0.039l0,0l0.012-0.025l0.025-0.051l0,0l0.039-0.014
			l0.012-0.025l0.012-0.026l0.014-0.025l0.012-0.024l0.025,0.011l0.012-0.026l0.025-0.049l0,0l0.014-0.027l0.037-0.013l0,0
			l0.013-0.026l0.164-0.205l0.013-0.025l0.013-0.025l0,0l0.013-0.026l0.037-0.014l0,0l0.014-0.025l0.012-0.025l0,0l0.013-0.025
			l0.013-0.026l0.025,0.013l0,0l0.012-0.025l0.014-0.025l0,0l0.012-0.026l0.013-0.025l0,0l0,0l0.038-0.013l0.014-0.025l0,0
			l0.012-0.027l0,0l0,0l0.013-0.025l0.013-0.025l0,0l0,0l0.038-0.015l0,0l0.013-0.024l0,0l0.012-0.025l0,0l0.014-0.026l0,0l0,0
			l0.012-0.025l0,0l0,0l0.039-0.013l0,0l0.012-0.026l0,0l0,0l0.013-0.025l0,0l0,0l0.013-0.026l0,0l0,0l0,0l0.012-0.024l0,0l0,0
			l0.012-0.026l0,0l0,0l0,0l0,0l0.039-0.013l0,0l0,0l0,0l0,0l0.013-0.026l0,0l0,0l0,0l0,0l0,0l0.013-0.026l0,0l0,0l0,0l0,0l0,0l0,0
			l0,0l0,0l0.012-0.024l-0.025-0.012c-0.037,0.012-1.566-0.955-5.13-2.119c-0.86-0.388-0.849-0.478-0.252,0.384l0.675,1.028
			l-0.025-0.014l0,0l0,0l-0.038,0.015l0,0l0,0l-0.038,0.013l0,0l0,0l-0.025-0.012l-0.012,0.024l-0.027-0.012l0,0l0,0l0,0
			l-0.038,0.014l0,0l-0.024-0.013l-0.014,0.025l-0.025-0.014l0,0l0,0l-0.037,0.015l0,0l-0.04,0.013l0,0l-0.024-0.012l0,0
			l-0.013,0.025l-0.026-0.013l0,0l-0.039,0.014l0,0l0,0l0,0l-0.037,0.012l0,0l-0.025-0.012l-0.012,0.025l-0.027-0.013l0,0l0,0
			l-0.037,0.014l0,0l-0.039,0.013l0,0l0,0l-0.025-0.013l-0.012,0.026l-0.025-0.013l0,0l-0.039,0.013l0,0l0,0l-0.025-0.012
			l-0.077,0.026l0,0l0,0l-0.036,0.013l0,0l-0.039,0.013l0,0l-0.025-0.013l0,0l-0.039,0.014l0,0c-1.644,0.312-3.326,0.697-4.89,1.363
			c0.33-0.156,0.636-0.324,0.941-0.493c0.072-0.346,0.133-0.666,0.207-0.948c0.205-1.201,0.283-2.274,0.248-3.117l2.84,2.844
			c0.076-0.026,0.139-0.025,0.203-0.026L35.98-36.08l-1.717-1.629l13.551,2.441l-2.161,0.916l-1.97,0.977l-0.227,0.271l4.283-1.944
			c-0.338,0.756-0.644,1.78-0.862,3.009c-0.218,1.228-0.524,3.682-0.464,4.536l-2.86-3.584c-0.952-0.718-1.159-0.945-0.176,0.297
			l2.768,3.443c-1.256-0.548-3.601-1.214-6.351-1.698l-0.09-0.011l-0.103-0.051c-4.823-0.857-8.991,0.002-13.425,2.257
			L26.139-26.903z"/>
	</g>
</g>
<g>
	
		<radialGradient id="SVGID_1_" cx="61.6943" cy="-608.7984" r="62.6867" fx="89.6149" fy="-606.5118" gradientTransform="matrix(0.2699 0 0 0.0473 3.9932 -30.7914)" gradientUnits="userSpaceOnUse">
		<stop  offset="0" style="stop-color:#272727"/>
		<stop  offset="0.055" style="stop-color:#4E4E4E"/>
		<stop  offset="0.1227" style="stop-color:#787878"/>
		<stop  offset="0.1966" style="stop-color:#9C9C9C"/>
		<stop  offset="0.2758" style="stop-color:#BBBBBB"/>
		<stop  offset="0.3621" style="stop-color:#D4D4D4"/>
		<stop  offset="0.4582" style="stop-color:#E7E7E7"/>
		<stop  offset="0.5694" style="stop-color:#F5F5F5"/>
		<stop  offset="0.7096" style="stop-color:#FDFDFD"/>
		<stop  offset="0.9726" style="stop-color:#FFFFFF"/>
	</radialGradient>
	<path opacity="0.72" fill="url(#SVGID_1_)" d="M37.575-59.579c0,1.63-7.581,2.955-16.927,2.955c-9.362,0-16.934-1.324-16.934-2.955
		c0-1.641,7.572-2.972,16.934-2.972C29.994-62.551,37.575-61.22,37.575-59.579z"/>
	<g>
		<g>
			<path fill-rule="evenodd" clip-rule="evenodd" fill="#1B79C8" d="M16.814-70.9L16.814-70.9l0.542,0.054L16.814-70.9z
				 M-0.806-60.14c6.048-2.857,15.148-5.119,21.05-5.588l0.112-0.035l-0.168,1.189c-0.177,1.565-0.269,1.468,0.588,0.41l0.076-0.051
				l0.059-0.112l0,0l0.074-0.052l0.04-0.073l0,0l0.039-0.074l0.077-0.055l0,0l0.038-0.073l0.079-0.053l0,0l0.038-0.072l0.04-0.074
				l0.038,0.019l0.038-0.074l0.041-0.073l0,0l0.075-0.053l0.041-0.074l0,0l0.076-0.055l0.039-0.072l0,0l0.039-0.073l0.058-0.018
				l0.02-0.037l0.04-0.074l0.058-0.016l0.019-0.037l0.04-0.073l0.019-0.037l0,0l0.076-0.054l0.04-0.072l0,0l0.075-0.055l0.02-0.037
				l0.019-0.037l0.041-0.073l0.057-0.016l0,0l0.038-0.074l0.021-0.037l0.061-0.016l0.036-0.073l0.022-0.038l0,0l0.075-0.054
				l0.02-0.037l0.02-0.036l0.039-0.074l0.097-0.091l0.021-0.036l0.02-0.038l0.057-0.016l0.019-0.038l0.021-0.036l0.056-0.016
				l0.021-0.038l0.018-0.036l0.041-0.074l0,0l0.055-0.016l0.04-0.074l0.019-0.036l0,0l0.076-0.052l0.021-0.039l0,0l0.038-0.073
				l0.02-0.037l0.039,0.019l0.036-0.073l0,0l0.023-0.037l0.078-0.053l0,0l0.019-0.036l0.039-0.074l0,0l0.057-0.017l0.02-0.037
				l0.02-0.036l0.02-0.037l0.019-0.038l0.035,0.02l0.021-0.037l0.041-0.074l0,0l0.021-0.036l0.055-0.017l0,0l0.02-0.037l0.252-0.29
				l0.021-0.038l0.021-0.036l0,0l0.02-0.037l0.054-0.016l0,0l0.021-0.037l0.02-0.037l0,0l0.021-0.036l0.019-0.038l0.036,0.02l0,0
				l0.022-0.038l0.019-0.036l0,0l0.019-0.038l0.02-0.036l0,0l0,0l0.059-0.016l0.019-0.037l0,0l0.019-0.036l0,0l0,0l0.021-0.038
				l0.019-0.036l0,0l0,0l0.058-0.018l0,0l0.018-0.037l0,0l0.02-0.036l0,0l0.02-0.038l0,0l0,0l0.02-0.036l0,0l0,0l0.056-0.017l0,0
				l0.021-0.038l0,0l0,0l0.02-0.036l0,0l0,0l0.021-0.037l0,0l0,0l0,0l0.019-0.037l0,0l0,0l0.02-0.037l0,0l0,0l0,0l0,0l0.057-0.016
				l0,0l0,0l0,0l0,0l0.018-0.037l0,0l0,0l0,0l0,0l0,0l0.022-0.037l0,0l0,0l0,0l0,0l0,0l0,0l0,0l0,0l0.02-0.037l-0.037-0.019
				c-0.054,0.016-2.233-1.49-7.373-3.406c-1.233-0.618-1.208-0.748-0.391,0.548l0.926,1.541l-0.036-0.019l0,0l0,0l-0.057,0.018l0,0
				l0,0l-0.057,0.016l0,0l0,0l-0.038-0.02l-0.018,0.038l-0.039-0.02l0,0l0,0l0,0l-0.056,0.017l0,0l-0.036-0.021l-0.021,0.038
				l-0.037-0.021l0,0l0,0l-0.056,0.019l0,0l-0.058,0.014l0,0l-0.037-0.019l0,0l-0.019,0.037l-0.038-0.019l0,0l-0.056,0.016l0,0l0,0
				l0,0l-0.056,0.017l0,0l-0.037-0.02L17.3-70.305l-0.037-0.021l0,0l0,0l-0.056,0.018l0,0l-0.056,0.017l0,0l0,0l-0.039-0.02
				l-0.019,0.037l-0.037-0.02l0,0l-0.058,0.015l0,0l0,0l-0.036-0.02l-0.114,0.034l0,0l0,0l-0.054,0.018l0,0l-0.059,0.018l0,0
				l-0.036-0.02l0,0l-0.056,0.015l0,0c-2.424,0.357-4.905,0.822-7.23,1.7c0.491-0.207,0.947-0.436,1.403-0.665
				c0.127-0.501,0.234-0.964,0.36-1.372c0.372-1.745,0.55-3.309,0.549-4.542l3.98,4.329c0.113-0.034,0.206-0.032,0.3-0.03
				l-1.877-2.15L11.72-75.45l19.661,4.386l-3.214,1.208l-2.939,1.31l-0.348,0.382l6.379-2.588c-0.538,1.086-1.05,2.566-1.441,4.349
				c-0.392,1.782-0.988,5.35-0.949,6.602l-3.966-5.409c-1.351-1.107-1.639-1.455-0.275,0.42l3.841,5.203
				c-1.805-0.879-5.192-1.992-9.183-2.865l-0.132-0.022l-0.147-0.078c-6.999-1.545-13.144-0.539-19.76,2.49L-0.806-60.14z"/>
		</g>
	</g>
</g>
</svg>
