<svg id="bold" height="512" viewBox="0 0 24 24" width="512" xmlns="http://www.w3.org/2000/svg"><circle cx="10.5" cy="22.5" r="1.5"/><circle cx="18.5" cy="22.5" r="1.5"/><path d="m17.947 11.852c.62-.461 6.053-4.602 6.053-8.114 0-2.061-1.682-3.738-3.75-3.738-1.063 0-2.054.446-2.75 1.194-.697-.748-1.687-1.194-2.75-1.194-2.068 0-3.75 1.677-3.75 3.738 0 3.512 5.433 7.653 6.053 8.114.132.099.289.148.447.148s.314-.049.447-.148z"/><path d="m6.25 17h1.499.001 13.5c.354 0 .661-.249.734-.596l1.472-6.992c-1.578 1.906-3.459 3.407-4.315 4.044-.479.357-1.047.544-1.641.544s-1.162-.188-1.64-.542c-1.325-.986-5.103-4.029-6.406-7.458h-3.095l-.38-1.806c-.266-1.26-1.392-2.178-2.679-2.183l-2.547-.011c-.001 0-.002 0-.003 0-.413 0-.748.333-.75.747s.333.751.747.753l2.546.011c.585.002 1.097.42 1.218.992l.505 2.401 1.81 8.596h-.576c-1.241 0-2.25 1.009-2.25 2.25s1.009 2.25 2.25 2.25h15c.414 0 .75-.336.75-.75s-.336-.75-.75-.75h-15c-.414 0-.75-.336-.75-.75s.336-.75.75-.75z"/></svg>