<?xml version="1.0" standalone="no"?>
<!DOCTYPE svg PUBLIC "-//W3C//DTD SVG 20010904//EN"
 "http://www.w3.org/TR/2001/REC-SVG-20010904/DTD/svg10.dtd">
<svg version="1.0" xmlns="http://www.w3.org/2000/svg"
 width="512.000000pt" height="512.000000pt" viewBox="0 0 512.000000 512.000000"
 preserveAspectRatio="xMidYMid meet">

<g transform="translate(0.000000,512.000000) scale(0.100000,-0.100000)"
fill="#000000" stroke="none">
<path d="M2150 5114 c-19 -2 -78 -9 -130 -15 -383 -43 -775 -201 -1100 -442
-122 -91 -366 -335 -457 -457 -240 -324 -388 -690 -444 -1100 -8 -53 -13 -182
-13 -290 0 -223 17 -362 69 -566 217 -851 903 -1505 1765 -1683 119 -25 243
-40 338 -42 64 -1 76 1 97 21 33 31 34 88 2 118 -19 18 -42 23 -137 32 -426
37 -808 184 -1137 437 -114 88 -301 275 -386 386 -238 311 -402 721 -432 1077
-3 41 -8 90 -11 108 l-5 32 175 0 c96 0 186 4 201 10 30 11 54 60 47 96 -2 13
-16 33 -30 44 -23 18 -41 20 -209 20 l-183 0 4 23 c3 12 7 58 11 102 3 44 15
127 25 185 147 785 731 1430 1495 1651 123 36 284 66 390 74 44 4 90 8 103 11
22 4 22 4 22 -131 0 -137 6 -167 39 -192 26 -20 68 -15 98 11 28 24 28 24 31
170 3 144 4 146 25 142 12 -3 60 -8 107 -11 279 -21 641 -143 900 -303 266
-164 521 -415 687 -677 173 -273 292 -621 318 -930 l7 -80 -169 167 c-92 92
-180 172 -195 177 -52 19 -108 -21 -108 -78 0 -33 18 -53 263 -298 253 -254
264 -263 301 -263 38 0 49 9 288 248 138 136 256 260 264 275 30 57 -8 121
-72 121 -32 0 -50 -15 -212 -177 -97 -97 -180 -177 -183 -177 -3 0 -9 37 -12
83 -33 418 -212 871 -480 1211 -371 471 -895 774 -1487 861 -110 16 -407 28
-480 19z"/>
<path d="M3360 3979 c-14 -5 -233 -217 -486 -471 l-461 -460 -53 11 c-40 9
-68 9 -112 0 l-60 -12 -227 227 c-203 203 -230 226 -259 226 -44 0 -82 -38
-82 -82 0 -29 25 -58 226 -265 l226 -233 -12 -36 c-25 -76 6 -191 67 -249 53
-50 102 -69 178 -69 78 0 118 15 173 68 68 63 94 153 72 246 l-13 52 467 467
c440 440 466 468 466 502 0 33 -28 79 -50 79 -4 0 -14 2 -22 4 -7 3 -24 0 -38
-5z m-1002 -1099 c46 -43 37 -107 -19 -139 -51 -28 -119 14 -119 75 0 69 89
110 138 64z"/>
<path d="M2805 2209 c-322 -49 -571 -323 -578 -635 -2 -64 1 -76 20 -96 16
-15 34 -22 59 -21 55 2 72 26 84 118 13 103 32 160 79 233 116 179 323 271
523 233 297 -58 454 -346 329 -605 -22 -45 -166 -222 -560 -685 -293 -344
-534 -635 -537 -647 -8 -30 15 -76 46 -91 32 -16 1213 -19 1256 -3 15 6 33 18
40 28 20 26 17 75 -6 100 -12 12 -22 23 -23 24 -1 2 -237 5 -525 8 l-522 5
476 560 c494 582 516 612 549 740 20 77 19 211 -1 289 -24 94 -81 193 -154
267 -132 135 -361 208 -555 178z"/>
<path d="M4674 2212 c-12 -2 -30 -13 -41 -25 -16 -17 -1019 -1446 -1176 -1676
-54 -78 -49 -138 14 -160 22 -8 207 -11 585 -11 l554 0 0 -139 c0 -123 2 -141
20 -164 40 -51 111 -42 135 18 11 24 15 73 15 160 l0 125 125 0 c87 0 136 4
160 15 60 24 69 95 18 135 -23 18 -41 20 -164 20 l-139 0 0 810 c0 886 1 868
-56 887 -16 5 -39 7 -50 5z m-67 -1699 c-2 -2 -216 -2 -474 -1 l-471 3 472
673 471 673 3 -672 c1 -370 1 -674 -1 -676z"/>
</g>
</svg>
