<?xml version="1.0" standalone="no"?>
<!DOCTYPE svg PUBLIC "-//W3C//DTD SVG 20010904//EN"
 "http://www.w3.org/TR/2001/REC-SVG-20010904/DTD/svg10.dtd">
<svg version="1.0" xmlns="http://www.w3.org/2000/svg"
 width="512.000000pt" height="512.000000pt" viewBox="0 0 512.000000 512.000000"
 preserveAspectRatio="xMidYMid meet">

<g transform="translate(0.000000,512.000000) scale(0.100000,-0.100000)"
fill="#000000" stroke="none">
<path d="M2866 5111 c-3 -5 -17 -127 -31 -272 -14 -145 -28 -285 -31 -311 l-6
-48 1046 0 1047 0 -6 48 c-9 75 -55 555 -55 575 0 16 -53 17 -979 17 -558 0
-982 -4 -985 -9z"/>
<path d="M80 4495 l0 -395 395 0 395 0 0 150 0 149 -142 3 -143 3 70 46 c204
134 435 162 672 80 291 -100 485 -349 518 -664 l7 -68 146 3 147 3 -3 84 c-6
158 -70 354 -164 496 -253 386 -732 573 -1178 459 -126 -32 -263 -101 -397
-200 l-23 -16 0 131 0 131 -150 0 -150 0 0 -395z"/>
<path d="M2770 4172 c0 -17 -150 -1570 -155 -1604 l-5 -38 540 0 c509 0 540 1
540 18 0 12 -15 23 -47 34 -56 20 -126 75 -172 134 -46 60 -79 149 -92 251
-10 74 -9 100 4 168 21 103 95 252 181 367 69 90 262 288 282 288 22 0 260
-256 316 -340 115 -175 153 -279 151 -420 -2 -156 -49 -273 -145 -367 -43 -41
-129 -93 -154 -93 -8 0 -14 -9 -14 -20 0 -20 7 -20 539 -20 l540 0 -5 33 c-5
35 -154 1587 -154 1606 0 8 -279 11 -1075 11 -591 0 -1075 -3 -1075 -8z"/>
<path d="M4 3634 c20 -245 127 -479 298 -653 380 -387 984 -439 1408 -121 l55
41 3 -130 3 -131 149 0 150 0 0 395 0 395 -400 0 -401 0 3 -147 3 -148 145 -5
145 -5 -70 -46 c-230 -151 -508 -168 -758 -45 -245 120 -393 325 -429 595
l-12 91 -149 0 -150 0 7 -86z"/>
<path d="M3795 3309 c-25 -34 -62 -95 -82 -136 -32 -65 -37 -84 -37 -143 2
-126 56 -185 169 -185 38 1 72 7 93 19 73 38 97 184 48 291 -24 53 -120 200
-137 211 -5 3 -29 -23 -54 -57z"/>
<path d="M0 1115 l0 -1115 965 0 965 0 0 795 0 795 630 0 630 0 0 -795 0 -795
965 0 965 0 0 1048 c0 576 -3 1077 -7 1115 l-6 67 -2553 0 -2554 0 0 -1115z
m950 325 l0 -150 -150 0 -150 0 0 143 c0 79 3 147 7 150 3 4 71 7 150 7 l143
0 0 -150z m628 -2 l3 -148 -156 0 -155 0 0 143 c0 79 3 147 7 151 4 3 72 5
152 4 l146 -3 3 -147z m2272 2 l0 -150 -150 0 -150 0 0 143 c0 79 3 147 7 150
3 4 71 7 150 7 l143 0 0 -150z m628 -2 l3 -148 -151 0 -150 0 0 150 0 151 148
-3 147 -3 3 -147z m-3528 -658 l0 -150 -150 0 -150 0 0 150 0 150 150 0 150 0
0 -150z m628 3 l-3 -148 -150 0 -150 0 -3 148 -3 147 156 0 156 0 -3 -147z
m2272 -3 l0 -151 -147 3 -148 3 -3 148 -3 147 151 0 150 0 0 -150z m630 0 l0
-150 -150 0 -150 0 0 150 0 150 150 0 150 0 0 -150z"/>
<path d="M2230 645 l0 -645 330 0 330 0 0 645 0 645 -330 0 -330 0 0 -645z"/>
</g>
</svg>
