<?xml version="1.0" standalone="no"?>
<!DOCTYPE svg PUBLIC "-//W3C//DTD SVG 20010904//EN"
 "http://www.w3.org/TR/2001/REC-SVG-20010904/DTD/svg10.dtd">
<svg version="1.0" xmlns="http://www.w3.org/2000/svg"
 width="96.000000pt" height="96.000000pt" viewBox="0 0 96.000000 96.000000"
 preserveAspectRatio="xMidYMid meet">

<g transform="translate(0.000000,96.000000) scale(0.100000,-0.100000)"
fill="#000000" stroke="none">
<path d="M150 842 c-65 -32 -70 -56 -70 -328 0 -221 2 -242 18 -257 10 -10 26
-17 34 -17 8 0 59 32 112 70 l96 70 137 0 c223 0 243 20 243 240 0 156 -12
193 -70 222 -30 16 -65 18 -250 18 -185 0 -220 -2 -250 -18z m405 -152 l0 -25
-153 -3 c-129 -2 -153 0 -158 13 -4 8 -4 22 0 30 5 13 29 15 158 13 l153 -3 0
-25z m-60 -140 l0 -25 -123 -3 c-102 -2 -123 0 -128 13 -3 8 -3 22 0 30 5 13
26 15 128 13 l123 -3 0 -25z"/>
<path d="M760 580 c0 -112 -11 -150 -56 -192 -45 -41 -75 -48 -217 -48 l-132
0 -47 -33 c-27 -18 -47 -39 -46 -47 2 -8 18 -25 37 -37 31 -21 45 -23 178 -23
l143 0 96 -70 c53 -38 104 -70 114 -70 9 0 24 8 33 18 15 16 17 49 17 256 0
181 -3 245 -14 271 -15 34 -42 57 -83 70 -23 6 -23 5 -23 -95z"/>
</g>
</svg>
