<?xml version="1.0" standalone="no"?>
<!DOCTYPE svg PUBLIC "-//W3C//DTD SVG 20010904//EN"
 "http://www.w3.org/TR/2001/REC-SVG-20010904/DTD/svg10.dtd">
<svg version="1.0" xmlns="http://www.w3.org/2000/svg"
 width="52.000000pt" height="52.000000pt" viewBox="0 0 52.000000 52.000000"
 preserveAspectRatio="xMidYMid meet">

<g transform="translate(0.000000,52.000000) scale(0.100000,-0.100000)"
fill="#000000" stroke="none">
<path d="M198 486 c-205 -56 -235 -337 -45 -435 135 -69 304 10 336 159 37
171 -122 322 -291 276z m116 -102 c8 -21 -11 -44 -36 -44 -21 0 -33 22 -24 45
7 20 52 19 60 -1z m-39 -88 c18 -13 19 -18 7 -75 -14 -65 -11 -81 16 -81 11 0
13 -3 5 -11 -6 -6 -28 -9 -49 -7 -37 3 -39 4 -38 38 0 19 4 54 8 77 8 38 7 42
-15 45 l-24 5 25 11 c34 15 43 14 65 -2z"/>
</g>
</svg>
