<?xml version="1.0" standalone="no"?>
<!DOCTYPE svg PUBLIC "-//W3C//DTD SVG 20010904//EN"
 "http://www.w3.org/TR/2001/REC-SVG-20010904/DTD/svg10.dtd">
<svg version="1.0" xmlns="http://www.w3.org/2000/svg"
 width="512.000000pt" height="512.000000pt" viewBox="0 0 512.000000 512.000000"
 preserveAspectRatio="xMidYMid meet">

<g transform="translate(0.000000,512.000000) scale(0.100000,-0.100000)"
fill="#000000" stroke="none">
<path d="M2300 5068 c-54 -29 -64 -95 -19 -136 17 -16 42 -21 152 -27 232 -12
409 -40 612 -97 425 -119 816 -349 1135 -668 467 -466 735 -1074 766 -1738 7
-134 9 -144 32 -167 46 -46 122 -23 138 42 10 39 -4 261 -27 418 -166 1153
-1046 2087 -2192 2325 -222 46 -551 73 -597 48z"/>
<path d="M794 4626 c-94 -31 -131 -60 -314 -245 -204 -206 -285 -310 -361
-466 -89 -183 -125 -349 -115 -535 19 -382 206 -761 583 -1182 142 -158 1538
-1548 1648 -1640 670 -561 1263 -663 1794 -308 148 99 457 397 518 500 77 129
67 313 -23 450 -113 172 -356 384 -665 582 -160 103 -210 121 -324 122 -117 1
-166 -22 -243 -114 -110 -132 -238 -264 -282 -292 -69 -44 -171 -72 -236 -64
-125 15 -119 9 -745 635 -633 633 -623 621 -635 754 -7 74 18 160 70 241 30
46 178 185 294 275 117 91 141 258 61 427 -38 80 -169 277 -276 415 -165 212
-327 364 -453 423 -56 26 -78 31 -160 33 -59 1 -110 -3 -136 -11z"/>
<path d="M2300 4468 c-53 -29 -64 -95 -20 -136 15 -14 50 -20 182 -30 277 -21
493 -77 728 -189 217 -103 397 -229 564 -397 176 -176 288 -334 397 -561 111
-231 171 -457 190 -720 13 -175 14 -180 41 -205 44 -41 119 -15 134 46 17 66
-18 370 -62 547 -97 388 -287 720 -579 1012 -336 337 -729 538 -1196 615 -161
26 -347 35 -379 18z"/>
<path d="M2300 3868 c-54 -29 -64 -95 -19 -137 16 -15 42 -20 112 -25 388 -27
710 -173 957 -432 232 -243 360 -524 390 -858 14 -154 16 -161 42 -186 44 -41
119 -15 134 46 11 42 -14 271 -40 380 -34 139 -69 231 -137 364 -204 398 -585
701 -1017 809 -153 39 -382 59 -422 39z"/>
</g>
</svg>
