<svg id="Layer_1" enable-background="new 0 0 510 510" height="512" viewBox="0 0 510 510" width="512" xmlns="http://www.w3.org/2000/svg"><g><path d="m165 0h180v60h-180z"/><path d="m150 165h30v30h-30z"/><path d="m375 30v60h-240v-60h-5-70v480h390v-480zm-222 428.213-32.606-32.606 21.213-21.213 11.393 11.393 35.394-35.394 21.213 21.213zm0-120-32.606-32.606 21.213-21.213 11.393 11.393 35.394-35.394 21.213 21.213zm57-113.213h-90v-90h90zm180 240h-135v-30h135zm0-60h-135v-30h135zm0-60h-135v-30h135zm0-60h-135v-30h135zm0-60h-135v-30h135zm0-60h-135v-30h135z"/></g></svg>