<svg height="366pt" viewBox="-50 0 366 366" width="366pt" xmlns="http://www.w3.org/2000/svg"><path d="m238.847656 27.160156h-34.6875v11.773438c-.023437 22.59375-18.335937 40.90625-40.929687 40.929687h-60.683594c-22.59375-.023437-40.90625-18.335937-40.929687-40.929687v-11.773438h-34.6875c-14.867188.019532-26.9101568 12.0625-26.929688 26.929688v284.980468c.015625 14.867188 12.0625 26.914063 26.929688 26.929688h211.917968c14.867188-.015625 26.914063-12.0625 26.929688-26.929688v-284.980468c-.015625-14.867188-12.0625-26.910156-26.929688-26.929688zm-44.589844 152.773438-72.640624 70.917968c-2.71875 2.652344-7.058594 2.652344-9.777344 0l-40.320313-39.367187c-2.765625-2.699219-2.820312-7.132813-.117187-9.898437 2.699218-2.765626 7.132812-2.820313 9.898437-.117188l35.429688 34.589844 67.746093-66.144532c2.765626-2.699218 7.199219-2.648437 9.898438.117188 2.703125 2.769531 2.648438 7.199219-.117188 9.902344zm0 0"/><path d="m102.546875 65.863281h60.683594c14.867187-.015625 26.914062-12.0625 26.929687-26.929687v-11.773438h-22.832031c-3.285156 0-6.128906-2.289062-6.835937-5.5-2.757813-12.550781-14.363282-21.660156-27.601563-21.660156s-24.847656 9.109375-27.601563 21.664062c-.703124 3.210938-3.550781 5.5-6.835937 5.5h-22.835937v11.773438c.019531 14.863281 12.066406 26.910156 26.929687 26.925781zm0 0"/></svg>