<?xml version="1.0" encoding="utf-8"?>
<!-- Generator: Adobe Illustrator 25.4.1, SVG Export Plug-In . SVG Version: 6.00 Build 0)  -->
<svg version="1.1" id="Layer_1" xmlns="http://www.w3.org/2000/svg" xmlns:xlink="http://www.w3.org/1999/xlink" x="0px" y="0px"
	 viewBox="0 0 4465.786 4873.95" enable-background="new 0 0 4465.786 4873.95" xml:space="preserve">
<path fill="#222222" d="M1558.819,2862.384c96.01,121.322,218.037,204.482,298.172,317.884
	c43.94,65.39,65.849,136.919,71.912,214.296c2.245,45.377-1.672,87.959-8.132,118.159c-4.722,21.944-15.258,60.521-27.426,88.062
	c-20.314,45.979,18.928,97.83,66.261,97.835c28.407,0,54.666-18.597,66.609-45.633c71.448-161.713,60.553-337.314-7.045-480.548
	c-86.243-182.747-253.843-264.495-378.428-443.357c-51.708-74.226-101.244-172.353-130.548-264.114
	c-100.352-314.124-46.948-588.704,112.379-809.087c125.359-173.419,307.812-296.965,527.17-326.644
	c18.173-2.459,42.571-4.808,45.662-4.868l-0.001-0.016c43.321-1.232,103.057-7.901,204.445,10.161
	c205.496,36.621,405.128,156.953,536.432,345.46c137.584,197.499,190.923,490.047,112.708,771.015
	c-56.873,204.299-153.442,319.207-267.69,454.392c-88.252,104.425-181.079,217.098-239.707,351.643
	c-49.031,112.522-67.729,228.722-39.792,346.1c7.109,29.869,35.373,45.71,63.172,39.843c29.021-6.125,46.859-32.68,41.495-61.77
	c-8.231-44.629-8.025-93.135,0.611-144.169c30.551-180.529,161.047-332.758,265.477-456.641
	c141.496-167.853,291.667-348.269,335.228-667.227c13.992-102.455,12.931-206.32-3.156-308.709
	c-93.113-592.641-640.233-876.801-1070.839-830.286C1458.893,1247.06,982.18,2133.7,1558.819,2862.384z M1450.83,1979.591
	l23.245-7.37c1.576,4.971,1.713,9.371,1.515,12.332L1450.83,1979.591z"/>
<path fill="#222222" d="M2607.409,3865.853c-13.839,3.215-28.171,5.979-42.415,6.115c-376.716,3.622-603.638,23.194-602.842,23.158
	c-7.713,0.348-14.549-1.416-21.409-4.243c-7.908-3.259-15.531-6.866-21.569-13.147c-6.579-8.872-12.698-15.28-13.04-28.661
	c-1.091-4.406-1.005-8.787,0.259-13.146c0.102-4.463,1.309-8.6,3.622-12.412c4.464-10.023,11.198-17.44,20.699-23.247
	c16.228-9.919,18.676-8.683,53.558-11.307c291.172-21.91,461.889-20.582,578.529-18.18c15.655,0.323,31.192,3.322,46.344,7.154
	c9.115,4.06,16.92,6.422,23.357,16.804c5.789,7.806,9.888,17.838,9.243,27.814
	C2640.466,3842.35,2627.512,3861.183,2607.409,3865.853z"/>
<path fill="#222222" d="M1914.394,3958.595c13.949-4.307,23.43-2.863,78.374-2.506c40.898,0.266,319.868,4.805,462.592,9.747
	c80.565,2.788,125.226,5.144,157.5,11.074c11.421,2.099,24.901,14.238,27.171,27.551c-0.052-0.124-0.105-0.247-0.157-0.371
	c2.409,6.979,2.195,13.622,0.065,20.327c0.031-0.072,0.061-0.144,0.091-0.216c-2.397,13.093-15.615,25.625-27.171,27.52
	c-24.816,4.07-49.961,5.351-75.075,6.302c-138.45,5.245-520.514,3.345-536.607,3.147c-86.958-1.073-76.537,0.496-99.016-8.99
	c-5.967-3.218-10.755-7.614-14.366-13.188c-6.672-8.636-11.496-19.809-10.994-31.024
	C1877.873,3984.101,1890.864,3965.858,1914.394,3958.595z"/>
<path fill="#222222" d="M1907.551,4189.635c20.069-27.071,68.459-26.101,286.103-31.579c119.692-3.014,65.127-2.275,260.759-4.169
	c31.978-0.31,65.536-1.43,110.148,3.323c30.179,3.217,31.29,2.879,36.061,4.237c15.278,4.349,32.398,21.796,31.454,39.478
	c-0.527,9.873-4.129,17.908-10.741,25.314c-13.049,14.615-19.364,13.721-44.164,17.476c-60.885,9.217-70.292,8.078-238.031,13.875
	c-47.088,1.627-338.77,8.72-370.943,4.876c-35.297-4.214-42.243-5.613-52.788-13.906c-2.675-2.103-4.893-4.31-6.789-6.663
	C1886.798,4231.164,1886.701,4201.131,1907.551,4189.635z"/>
<path fill="#222222" d="M1929.641,4316.016c11.872-7.516,31.008-9.639,39.283-8.958c139.914,11.504,291.923,8.603,430.112-1.792
	c20.649-1.553,41.303-1.973,61.965-3.224c34.952-2.118,39.526-4.312,70.239,1.589c5.486,0.738,10.655,3.4,14.667,7.072
	c5.112,3.949,10.084,9.559,12.53,15.862c14.042-6.946,30.157,7.183,25.856,21.982c-13.219,45.488-48.384,81.367-89.695,103.008
	c-55.574,29.112-118.939,32.523-181.544,33.176c-65.27,8.495-132.263,10.183-206.713,1.72
	c-36.265,0.206-73.393,0.404-107.937-10.004c-51.287-15.453-82.979-50.326-93.148-87.551c-4.225-10.127-5.807-19.817-3.469-30.259
	C1902.585,4341.055,1914.899,4324.739,1929.641,4316.016z"/>
<path fill="#222222" d="M2444.267,1489.489l0.004-0.041c117.68,5.526,227.422,80.957,302.872,168.696
	c40.838,47.489,70.467,92.434,99.33,154.767c27.967,60.395,47.688,115.307,67.401,196.822
	c15.168,62.717,27.021,121.05,31.052,184.882c0.629,10.005,0.325,10.055-3.193,32.409c-1.139,7.238-1.58,10.695-8.852,25.719
	c-0.186,0.386-1.498,5.032-1.617,5.445c-9.208,31.953-52.959,42.429-74.684,10.055c-3.431-5.114-11.229-11.365-16.822-21.031
	c-10.145-17.534-15.358-29.072-23.76-69.106c-14.271-67.949-25.066-144.386-54.607-236.421
	c-40.796-127.102-95.892-225.323-200.149-307.772c-40.043-30.053-73.092-45.855-109.619-60.862l-0.014,0.033
	c-0.001,0-0.091-0.038-0.092-0.039c-21.342-8.982-21.394-7.258-29.141-12.043l-0.039,0.06c-1.705-0.936-3.417-1.86-5.136-2.772
	l0.055-0.115c-3.246-1.714-6.18-3.826-9.134-6.876l-0.028,0.024c-1.44-1.372-2.918-2.753-4.39-4.105
	c-13.536-12.428-13.004-39.981,8.311-49.709c3.486-1.593,7.589-4.197,14.443-5.825l-0.008-0.059
	C2435.168,1490.42,2436.687,1488.952,2444.267,1489.489z"/>
<path fill="#222222" d="M3085.709,2846.727c2.863,0.355,7.7-0.298,15.471,1.842c6.298,1.734,10.682,4.492,13.232,5.707
	c2.532,1.206,5.486,2.44,8.533,3.798l-0.053,0.123c9.617,4.758,18.293,10.837,26.014,16.246c25.214,17.667,5.78,3.415,39.587,30.073
	c21.701,14.844,73.222,60.787,92.286,77.929c271.077,243.737,279.031,266.621,335.127,304.36
	c9.644,6.49,20.059,10.725,38.369,26.003c4.703,1.837,8.711,4.001,11.798,5.36c3.275,1.443,0.908-0.138,13.235,9.384
	c8.448,10.934,7.228,9.253,8.208,10.929c15.493,26.471,6.748,68.998-38.009,80.374l0.009,0.037
	c-5.765,1.946-11.304,2.563-15.873,3.008c-10.046,3.904-21.542,4.309-34.333,4.309c-14.209,0-25.327-3.468-36.097-7.385
	c-62.402-22.679-91.142-52.655-268.846-224.908c-149.115-144.55-161.381-160.122-199.21-202.825
	c-28.511-32.181-23.84-28.879-41.485-52.282l0.03-0.023c-3.17-4.521-4.204-6.941-6.205-10.808
	c-3.059-5.922-8.562-13.591-9.475-26.964c-2.169-14.115,0.708-26.074,8.776-36.518
	C3047.701,2862.689,3063.064,2843.93,3085.709,2846.727z"/>
<path fill="#222222" d="M879.753,3476.51c2.239-6.028,5.301-10.906,7.385-14.659c3.642-6.552,1.811-8.791,18.634-33.302
	c6.959-10.141,13.705-21.262,24.839-36.136c110.098-147.092,232.264-290.249,365.219-418.474
	c30.723-29.627,48.256-47.993,71.781-56.498c46.343-16.751,84.898,27.106,69.128,67.919c-6.55,16.951-17.89,30.5-28.379,41.732
	l0.03,0.028c-10.438,10.438-73.589,78.561-86.84,92.739c-169.333,181.188-267.943,317.262-325.964,387.071
	c-13.555,16.307-14.055,14.331-19.461,20.14c-4.058,4.365-7.197,8.832-15.551,14.041c-6.657,7.29-12.727,13.979-18.498,20.383
	c-3.392,3.764-13.714,15.218-30.254,17.169c-40.613,4.792-65.907-37.76-49.86-67.196
	C884.243,3470.589,875.447,3488.119,879.753,3476.51z"/>
<path fill="#222222" d="M291.98,2191.86c12.542-7.06,15.703-13.784,38.27-20.051c23.187-12.799,43.116-14.507,94.287-22.48
	c44.718-6.969,369.365-48.725,588.675-68.051c51.146-4.505,19.588-3.05,86.537-5c34.906-1.014,53.123,3.096,74.415,26.451
	c14.687,16.09,17.569,38.801,7.344,57.859c-20.613,38.426-43.766,39.146-97.498,51.028c-23.496,5.195-134.502,22.174-152.378,24.602
	c-553.212,75.161-556.16,71.173-585.374,63.709c-23.719-0.595-26.562-5.865-43.324-10.408
	C258.852,2277.641,248.862,2216.085,291.98,2191.86z"/>
<path fill="#222222" d="M3472.83,2074.155L3472.83,2074.155c-18.954,0.916-24.938,0.306-68.02,1.702
	c-11.269,0.367-18.818-1.274-47.398-3.309c-17.633-1.256-26.887-4.723-34.799-7.662c-5.244-1.949-16.831-5.888-26.348-15.405
	c-25.053-25.054-23.541-70.919,11.399-92.863c17.778-11.167,23.702-13.413,40.126-17.931c33.352-9.174,12.483-7.311,117.614-20.694
	l0.021,0.16c19.499-2.149,38.993-3.369,57.977-4.557c175.314-10.963,258.921-9.399,350.868-6.34
	c90.497,3.01,192.413,9.878,283.117,25.258c8.539,1.449,12.408,1.355,25.497,7.526c2.563,0.728,18.005,5.475,21.959,6.919
	c6.905,2.52,10.727,3.868,16.857,8.155c7.165,2.519,15.928,5.883,24.768,10.428c18.72,9.625,29.725,31.741,26.764,53.782
	c-2.887,21.483-18.535,39.366-38.937,44.498c-8.475,2.132-16.736,3.294-24.514,4.152c-9.519,3.838-16.428,4.546-26.672,5.233
	c-19.539,1.309-13.674,2.653-30.114,3.831c-24.596,1.763-191.103-8.411-314.62-10.293
	C3625.829,2063.51,3508.166,2072.45,3472.83,2074.155z"/>
<path fill="#222222" d="M3735.271,739.112c-5.057,16.871-14.923,30.988-22.378,43.284c-19.116,31.53-29.722,50.925-81.307,113.368
	c-200.538,242.748-367.906,359.405-516.936,459.167c-17.788,11.907-26.576,19.581-44.662,19.58
	c-49.371,0-75.521-63.036-29.032-96.813c58.374-42.408,74.116-55.919,111.277-88.536c111.63-97.978,163.902-144.209,277.858-265.138
	c59.009-62.619,95.74-107.306,151.017-173.94c8.731-10.525,18.165-19.828,26.685-29.057c28.206-30.549,31.246-35.076,42.051-42.653
	c5.81-6.07,11.958-11.199,16.926-16.01c37.603-36.42,101.822,3.866,77.248,57.301
	C3741.341,725.487,3738.686,732.28,3735.271,739.112z"/>
<path fill="#222222" d="M1205.549,1454.949c-6.249,0-8.978-0.858-11.994-0.864c-34.359-0.061-130.363-37.963-150.899-45.884
	c-45.804-17.667-67.631-26.105-141.359-61.916c-117.125-56.892-186.767-98.153-257.949-143.849
	c-65.211-41.863-90.036-63.966-101.765-73.999c-31.443-26.9-33.731-27.816-40.597-38.117c-7.967-7.259-15.792-14.675-24.19-22.597
	c-17.792-16.778-19.752-45.423-4.462-65.213c14.772-19.121,41.225-24.573,62.894-12.961c8.962,4.801,18.102,9.541,27.243,14.371
	c16.564,4.415,20.913,9.353,71.688,35.807c11.595,6.042,22.259,12.902,32.663,19.099
	c268.295,159.825,309.759,171.933,521.727,275.555c5.78,2.826,12.338,5.643,19.016,9.535c22.63,13.177,16.023,10.864,23.491,15.503
	C1276.634,1387.78,1257.141,1454.952,1205.549,1454.949z"/>
<path fill="#222222" d="M2208.283,995.609c-21.831,26.68-79.591,29.991-101.357-27.515c-5.23-12.044-4.631-16.437-5.607-29.345
	c-6.603-88.856-8.544-353.45-7.508-442.5c0.5-43.141-0.915-88.071,5.569-132.632c1.823-18.527,1.879-38.383,5.944-58.872
	c1.498-11.356,1.493-17.352,6.126-27.433c1.075-6.896-0.848,4.221,3.29-20.886c3.985-24.189,36.202-49.687,70.431-31.602
	c9.504,5.021,20.897,16.963,23.451,31.313c3.426,19.236,3.606,21.115,3.607,21.12c4.191,9.38,4.62,14.752,5.545,21.193
	c2.077,14.417,3.322,13.061,5.893,46.658c2.906,37.922,6.525,30.258,8.088,116.515c0.015,0.808,4.86,203.729,2.168,359.942
	C2231.546,959.45,2233.435,964.863,2208.283,995.609z"/>
</svg>
