<?xml version="1.0" encoding="utf-8"?>
<!-- Generator: Adobe Illustrator 25.4.1, SVG Export Plug-In . SVG Version: 6.00 Build 0)  -->
<svg version="1.1" id="Layer_1" xmlns="http://www.w3.org/2000/svg" xmlns:xlink="http://www.w3.org/1999/xlink" x="0px" y="0px"
	 viewBox="0 0 512 512" enable-background="new 0 0 512 512" xml:space="preserve">
<g>
	<g>
		<path fill="#878787" d="M347.114,336.821c-15.155,19.111-31.644,37.103-46.92,56.107c-3.214,5.438-6.978,10.515-10.272,15.899
			c-1.036,2.041-1.996,4.123-2.874,6.237l-0.114,0.401c-0.547,2.803-0.982,5.442-1.297,7.846
			c-0.545,11.856,6.117,22.327,15.304,29.305c1.858,1.139,3.95,2.275,6.233,3.384l145.557-138.739l-11.216-11.313L314.38,425.897
			c-1.152,1.088-3.098,0.109-2.911-1.464l0.865-7.31c0.117-0.992,1.141-2.122,1.644-2.92c1.281-2.033,2.556-4.069,3.828-6.108
			c4.501-7.212,8.96-14.451,13.384-21.711c13.227-21.704,26.168-43.59,38.555-65.785c10.761-19.281,21.317-38.794,30.198-59.025
			c8.323-18.959,14.512-40.308,12.678-61.253C408.503,251.704,378.303,297.524,347.114,336.821
			C347.009,336.952,347.717,336.06,347.114,336.821z"/>
		<path fill="#878787" d="M282.328,430.482c-0.277,1.436-0.441,5.626-2.999,4.28L76.211,327.951
			c-1.718-0.911-3.199-3.82-4.216-5.421c-1.203-1.893-2.257-3.88-3.145-5.939c-1.79-4.149-2.89-8.573-3.358-13.064
			c-0.898-8.618,0.468-17.336,2.902-25.603c4.699-15.959,13.245-30.795,20.399-45.725c-9.874,17.328-21.842,34.304-27.122,53.781
			c-2.521,9.3-3.624,19.505-0.546,28.814c3.075,9.303,10.335,16.106,19.024,20.273l210.778,112.793
			c-3.848-4.602-7.344-10.667-8.439-18.177C282.433,429.95,282.38,430.216,282.328,430.482z"/>
	</g>
	<path fill="#BF0804" d="M397.134,210.196c-19.165-13.971-40.169-25.54-60.951-36.885c-25.47-13.905-51.337-27.083-77.339-39.961
		c-28.771-14.248-57.721-28.152-86.873-41.605c-7.803,24.792-22.129,57.598-25.398,64.989l219.754,110.163
		C384.917,242.516,395.026,216.049,397.134,210.196C360.903,183.784,395.026,216.049,397.134,210.196z M194.829,174.517
		l-15.04-47.737l-16.348,31.389l-10.126-5.274l26.368-50.625l3.375,1.756l15.202,48.25l16.525-31.725l10.125,5.273l-26.368,50.627
		L194.829,174.517z M250.952,191.733l-4.923,9.451l-37.125-19.338l26.35-50.592l37.211,19.338l-4.923,9.45l-27.066-14.098
		l-5.625,10.801l20.283,10.564l-4.905,9.418l-20.283-10.565l-5.995,11.508L250.952,191.733z M297.195,227.834l9.212-42.4
		l-29.462,31.852l-10.127-5.274l12.835-57.674l10.799,5.625l-9.12,39.015l27.043-29.68l10.463,5.449l-9.156,38.996l26.706-29.856
		l10.801,5.625l-39.869,43.595L297.195,227.834z M345.053,252.761c-7.418-3.864-13.443-9.638-16.011-17.78l10.267-3.235
		c0.844,3.872,3.849,7.44,9.014,10.702c3.377,1.759,7.985,3.669,11.157,0.544c3.073-3.027,1.661-7.141-1.052-9.758
		c-3.554-3.429-7.844-5.587-10.964-9.553c-3.116-3.962-4.557-8.15-2.882-13.095c3.167-9.352,12.617-12.507,21.763-10.37
		c9.119,2.13,16.693,9.152,19.484,18.002l-10.268,3.235c-0.751-3.456-2.942-6.254-5.895-8.139c-2.824-1.802-7.447-4.042-10.7-2.007
		c-8.489,5.308,5.857,13.107,9.022,16.553c2.673,2.91,5.194,6.579,5.549,10.616c0.373,4.242-1.375,9.033-4.272,12.142
		C363.218,257.104,352.341,256.556,345.053,252.761C340.35,250.311,350.004,255.339,345.053,252.761z"/>
	<g>
		<path fill="#CFCFCF" d="M379.078,285.142c17.384-29.323,30.231-61.535,30.516-94.721C391.171,163.613,189.225,66.547,167.168,56
			c-5.755,23.85-13.323,47.01-23.878,69.175c-12.207,25.635-24.249,51.349-36.39,77.016c-5.877,12.424-11.767,24.841-17.723,37.227
			c-4.173,8.679-8.657,17.248-12.502,26.08c-8.223,18.888-13.003,42.292,1.449,59.541L278.78,430.556
			c4.76-26.815,23.981-46.322,40.989-66.22c18.072-21.142,35.8-42.658,51.052-65.959L379.078,285.142z M154.925,197.46
			c26.538,0,45.617,27.276,36.451,52.216c-9.084,24.718-40.93,33.329-61.216,16.507c-12.526-10.386-17.305-28.003-11.686-43.292
			C124.03,207.774,138.825,197.46,154.925,197.46z M251.803,403.027L86.134,315.518c-0.054-4.97,0.587-9.912,1.65-14.663
			l168.237,88.863C253.939,394.335,252.618,398.868,251.803,403.027z M265.694,374.797L93.841,283.922
			c0.481-1.153,5.023-11.927,5.634-11.631c0.706,0.342,1.403,0.705,2.101,1.064c3.349,1.718,6.688,3.458,10.027,5.197
			c12.41,6.46,24.806,12.949,37.201,19.438c31.284,16.376,62.554,32.78,93.822,49.188c10.696,5.613,21.392,11.227,32.087,16.843
			C271.505,367.793,268.483,371.388,265.694,374.797z M288.736,347.611l-92.924-48.989l6.408-12.155l95.592,50.395
			C294.732,340.551,291.698,344.135,288.736,347.611z M308.075,324.351l-98.462-51.908l6.408-12.154l100.696,53.085
			C313.842,317.112,310.955,320.77,308.075,324.351z M333.274,290.583c-2.285,3.356-4.609,6.667-6.962,9.927l-102.897-54.247
			l6.408-12.154l104.248,54.959L333.274,290.583z M366.828,270.822c-0.263,0-0.528-0.06-0.776-0.184L143.538,159.092
			c-2.109-1.057,0.238-4.606,0.839-5.978c1.729-3.946,3.428-7.905,5.103-11.874c5.091-12.064,9.984-24.221,14.427-36.54
			c1.106-3.068,2.183-6.147,3.214-9.242c0.572-1.717,1.707-8.97,4.503-7.692c0.488,0.224,0.975,0.449,1.462,0.673
			c3.186,1.469,6.367,2.948,9.546,4.431c32.28,15.061,64.366,30.552,96.178,46.578c37.203,18.741,74.809,37.695,109.678,60.586
			c2.204,1.447,4.392,2.918,6.557,4.422c1.455,1.011,6.495,3.548,5.795,5.65c-1.104,3.311-2.438,6.556-3.786,9.772
			c-3.332,7.947-7.096,15.718-11.254,23.266c-2.575,4.675-5.308,9.264-8.211,13.744c-1.638,2.528-3.331,5.021-5.082,7.473
			C371.411,265.895,368.919,270.822,366.828,270.822z"/>
		<g>
			<g>
				<path fill="#CFCFCF" d="M429.146,312.851l9.512-8.974l-43.202-24.489c-1.901,3.885-3.852,7.746-5.831,11.592L429.146,312.851z"
					/>
				<path fill="#CFCFCF" d="M349.831,362.092c-1.911,3.227-3.826,6.451-5.756,9.666l13.095,8.998l8.802-8.305L349.831,362.092z"/>
				<path fill="#CFCFCF" d="M332.926,390.195c-5.671,9.279-11.372,18.542-17.196,27.726l-0.257,2.177l25.693-24.24L332.926,390.195z
					"/>
				<g>
					<path fill="#CFCFCF" d="M367.306,331.993c-2.181,3.837-4.374,7.668-6.583,11.488l21.4,13.733l11.09-10.463L367.306,331.993z"/>
				</g>
				<path fill="#CFCFCF" d="M382.37,304.769c-2.039,3.797-4.1,7.582-6.18,11.356l30.856,17.576l10.204-9.627L382.37,304.769z"/>
			</g>
		</g>
		<path fill="#706E71" d="M142.483,261.973c6.57,3.66,15.022,2.457,20.297-2.91c5.966-6.07,6.43-15.939,1.063-22.544
			c7.61-1.883,9.407-12.221,2.913-16.562c-7.061-4.721-16.503,2.282-13.868,10.459c-8.17-1.054-16.108,4.142-18.418,12.048
			C132.284,249.947,135.678,258.181,142.483,261.973C150.646,266.521,134.321,257.425,142.483,261.973z"/>
	</g>
</g>
</svg>
